<svg width="73" height="30" viewBox="0 0 73 30" fill="none" xmlns="http://www.w3.org/2000/svg">
<rect width="67" height="30" rx="2" fill="#F55157"/>
<path d="M73 15L66.25 9.80385L66.25 20.1962L73 15Z" fill="#F55157"/>
<path d="M22.8283 19.5C22.735 19.5 22.6556 19.472 22.5903 19.416C22.5343 19.3507 22.5063 19.2713 22.5063 19.178V18.73C22.5063 18.646 22.5296 18.5527 22.5763 18.45C22.623 18.3473 22.7163 18.2353 22.8563 18.114L25.8243 15.146C26.3003 14.7447 26.6736 14.404 26.9443 14.124C27.2243 13.8347 27.4203 13.5593 27.5323 13.298C27.6536 13.0367 27.7143 12.766 27.7143 12.486C27.7143 11.954 27.565 11.534 27.2663 11.226C26.9676 10.9087 26.5243 10.75 25.9363 10.75C25.563 10.75 25.241 10.8293 24.9703 10.988C24.6996 11.1373 24.485 11.3473 24.3263 11.618C24.177 11.8793 24.079 12.178 24.0323 12.514C24.0136 12.6353 23.9623 12.7193 23.8783 12.766C23.8036 12.8127 23.7336 12.836 23.6683 12.836H22.9403C22.8563 12.836 22.7863 12.8127 22.7303 12.766C22.6743 12.71 22.6463 12.6447 22.6463 12.57C22.6556 12.2153 22.7303 11.8607 22.8703 11.506C23.0103 11.142 23.2156 10.8153 23.4863 10.526C23.7663 10.2367 24.107 10.0033 24.5083 9.826C24.919 9.63933 25.395 9.546 25.9363 9.546C26.6736 9.546 27.2756 9.68133 27.7423 9.952C28.2183 10.2133 28.5683 10.5633 28.7923 11.002C29.0163 11.4407 29.1283 11.9213 29.1283 12.444C29.1283 12.8547 29.0583 13.2327 28.9183 13.578C28.7783 13.914 28.573 14.2453 28.3023 14.572C28.041 14.8893 27.7143 15.216 27.3223 15.552L24.6343 18.282H29.0023C29.105 18.282 29.1843 18.31 29.2403 18.366C29.3056 18.422 29.3383 18.5013 29.3383 18.604V19.178C29.3383 19.2713 29.3056 19.3507 29.2403 19.416C29.1843 19.472 29.105 19.5 29.0023 19.5H22.8283ZM34.1251 19.64C33.3878 19.64 32.7624 19.514 32.2491 19.262C31.7451 19.0007 31.3578 18.6647 31.0871 18.254C30.8258 17.8433 30.6858 17.4093 30.6671 16.952C30.6578 16.868 30.6811 16.8027 30.7371 16.756C30.7931 16.7093 30.8631 16.686 30.9471 16.686H31.7031C31.7871 16.686 31.8618 16.7047 31.9271 16.742C31.9924 16.7793 32.0438 16.8587 32.0811 16.98C32.1744 17.3253 32.3238 17.61 32.5291 17.834C32.7438 18.0487 32.9864 18.2073 33.2571 18.31C33.5371 18.4033 33.8264 18.45 34.1251 18.45C34.5264 18.45 34.8904 18.3707 35.2171 18.212C35.5531 18.044 35.8191 17.8013 36.0151 17.484C36.2111 17.1573 36.3091 16.7653 36.3091 16.308C36.3091 15.888 36.2111 15.5287 36.0151 15.23C35.8284 14.922 35.5671 14.6887 35.2311 14.53C34.9044 14.362 34.5358 14.278 34.1251 14.278C33.8171 14.278 33.5651 14.3153 33.3691 14.39C33.1731 14.4647 33.0051 14.5533 32.8651 14.656C32.7344 14.7587 32.6131 14.8473 32.5011 14.922C32.3984 14.9967 32.2818 15.034 32.1511 15.034H31.4231C31.3391 15.034 31.2644 15.006 31.1991 14.95C31.1338 14.8847 31.1058 14.81 31.1151 14.726L31.5631 10.05C31.5724 9.938 31.6051 9.854 31.6611 9.798C31.7264 9.73267 31.8104 9.7 31.9131 9.7H36.7991C36.8924 9.7 36.9671 9.73267 37.0231 9.798C37.0884 9.854 37.1211 9.92867 37.1211 10.022V10.568C37.1211 10.6707 37.0884 10.75 37.0231 10.806C36.9671 10.862 36.8924 10.89 36.7991 10.89H32.7671L32.5011 13.648C32.6318 13.564 32.8418 13.466 33.1311 13.354C33.4204 13.2327 33.8171 13.172 34.3211 13.172C34.7784 13.172 35.2078 13.242 35.6091 13.382C36.0198 13.522 36.3838 13.7273 36.7011 13.998C37.0184 14.2687 37.2658 14.6 37.4431 14.992C37.6204 15.3747 37.7091 15.818 37.7091 16.322C37.7091 17.0313 37.5504 17.6333 37.2331 18.128C36.9251 18.6227 36.5004 19.0007 35.9591 19.262C35.4271 19.514 34.8158 19.64 34.1251 19.64ZM39.8756 19.5C39.6796 19.5 39.5816 19.4067 39.5816 19.22C39.5816 19.164 39.6003 19.1127 39.6376 19.066L46.5536 9.966C46.6189 9.882 46.6796 9.81667 46.7356 9.77C46.8009 9.72333 46.8943 9.7 47.0156 9.7H47.4776C47.6736 9.7 47.7716 9.79333 47.7716 9.98C47.7716 10.036 47.7529 10.0873 47.7156 10.134L40.8136 19.234C40.7483 19.318 40.6829 19.3833 40.6176 19.43C40.5616 19.4767 40.4683 19.5 40.3376 19.5H39.8756ZM46.2876 19.584C45.6716 19.584 45.1909 19.4113 44.8456 19.066C44.5003 18.7207 44.3089 18.268 44.2716 17.708C44.2623 17.4653 44.2576 17.26 44.2576 17.092C44.2576 16.9147 44.2623 16.6953 44.2716 16.434C44.2996 15.874 44.4816 15.4213 44.8176 15.076C45.1536 14.7213 45.6436 14.544 46.2876 14.544C46.9409 14.544 47.4309 14.7213 47.7576 15.076C48.0936 15.4213 48.2803 15.874 48.3176 16.434C48.3363 16.6953 48.3456 16.9147 48.3456 17.092C48.3456 17.26 48.3363 17.4653 48.3176 17.708C48.2803 18.268 48.0843 18.7207 47.7296 19.066C47.3843 19.4113 46.9036 19.584 46.2876 19.584ZM46.2876 18.66C46.5303 18.66 46.7216 18.6087 46.8616 18.506C47.0109 18.4033 47.1183 18.2773 47.1836 18.128C47.2489 17.9693 47.2863 17.8107 47.2956 17.652C47.3143 17.4 47.3236 17.204 47.3236 17.064C47.3236 16.9147 47.3143 16.7233 47.2956 16.49C47.2863 16.238 47.2069 16.0047 47.0576 15.79C46.9083 15.5753 46.6516 15.468 46.2876 15.468C45.9329 15.468 45.6809 15.5753 45.5316 15.79C45.3916 16.0047 45.3123 16.238 45.2936 16.49C45.2843 16.7233 45.2796 16.9147 45.2796 17.064C45.2796 17.204 45.2843 17.4 45.2936 17.652C45.3123 17.8107 45.3496 17.9693 45.4056 18.128C45.4709 18.2773 45.5736 18.4033 45.7136 18.506C45.8629 18.6087 46.0543 18.66 46.2876 18.66ZM41.0516 14.614C40.4356 14.614 39.9549 14.4507 39.6096 14.124C39.2643 13.7973 39.0729 13.354 39.0356 12.794C39.0263 12.5513 39.0216 12.346 39.0216 12.178C39.0216 12.0007 39.0263 11.7813 39.0356 11.52C39.0636 10.96 39.2456 10.5073 39.5816 10.162C39.9176 9.80733 40.4076 9.63 41.0516 9.63C41.7049 9.63 42.1949 9.80733 42.5216 10.162C42.8576 10.5073 43.0396 10.96 43.0676 11.52C43.0863 11.7813 43.0956 12.0007 43.0956 12.178C43.0956 12.346 43.0863 12.5513 43.0676 12.794C43.0396 13.354 42.8483 13.7973 42.4936 14.124C42.1483 14.4507 41.6676 14.614 41.0516 14.614ZM41.0516 13.746C41.2943 13.746 41.4856 13.6947 41.6256 13.592C41.7749 13.4893 41.8823 13.3633 41.9476 13.214C42.0129 13.0553 42.0503 12.8967 42.0596 12.738C42.0783 12.486 42.0876 12.29 42.0876 12.15C42.0876 12.0007 42.0783 11.8093 42.0596 11.576C42.0503 11.324 41.9663 11.0907 41.8076 10.876C41.6583 10.6613 41.4063 10.554 41.0516 10.554C40.6969 10.554 40.4449 10.6613 40.2956 10.876C40.1556 11.0907 40.0763 11.324 40.0576 11.576C40.0483 11.8093 40.0436 12.0007 40.0436 12.15C40.0436 12.29 40.0483 12.486 40.0576 12.738C40.0763 12.8967 40.1136 13.0553 40.1696 13.214C40.2349 13.3633 40.3376 13.4893 40.4776 13.592C40.6176 13.6947 40.8089 13.746 41.0516 13.746Z" fill="white"/>
</svg>
