<svg width="62" height="30" viewBox="0 0 62 30" fill="none" xmlns="http://www.w3.org/2000/svg">
<rect width="55" height="30" rx="2" fill="#62D0B6"/>
<path d="M14.7461 17C14.6434 17 14.5641 16.972 14.5081 16.916C14.4521 16.8507 14.4241 16.7713 14.4241 16.678V7.536C14.4241 7.43333 14.4521 7.354 14.5081 7.298C14.5641 7.23267 14.6434 7.2 14.7461 7.2H15.3901C15.5021 7.2 15.5861 7.228 15.6421 7.284C15.6981 7.33067 15.7307 7.368 15.7401 7.396L20.3881 14.536V7.536C20.3881 7.43333 20.4161 7.354 20.4721 7.298C20.5281 7.23267 20.6074 7.2 20.7101 7.2H21.3821C21.4847 7.2 21.5641 7.23267 21.6201 7.298C21.6854 7.354 21.7181 7.43333 21.7181 7.536V16.664C21.7181 16.7573 21.6854 16.8367 21.6201 16.902C21.5641 16.9673 21.4894 17 21.3961 17H20.7241C20.6214 17 20.5421 16.972 20.4861 16.916C20.4394 16.86 20.4067 16.8227 20.3881 16.804L15.7541 9.734V16.678C15.7541 16.7713 15.7214 16.8507 15.6561 16.916C15.6001 16.972 15.5207 17 15.4181 17H14.7461ZM26.8608 17.14C25.8994 17.14 25.1341 16.846 24.5648 16.258C23.9954 15.6607 23.6828 14.8487 23.6268 13.822C23.6174 13.7007 23.6128 13.5467 23.6128 13.36C23.6128 13.164 23.6174 13.0053 23.6268 12.884C23.6641 12.2213 23.8181 11.6427 24.0888 11.148C24.3594 10.644 24.7281 10.2567 25.1948 9.986C25.6708 9.71533 26.2261 9.58 26.8608 9.58C27.5701 9.58 28.1628 9.72933 28.6388 10.028C29.1241 10.3267 29.4928 10.7513 29.7448 11.302C29.9968 11.8527 30.1228 12.4967 30.1228 13.234V13.472C30.1228 13.5747 30.0901 13.654 30.0248 13.71C29.9688 13.766 29.8941 13.794 29.8008 13.794H24.9568C24.9568 13.8033 24.9568 13.822 24.9568 13.85C24.9568 13.878 24.9568 13.9013 24.9568 13.92C24.9754 14.3027 25.0594 14.662 25.2088 14.998C25.3581 15.3247 25.5728 15.5907 25.8528 15.796C26.1328 16.0013 26.4688 16.104 26.8608 16.104C27.1968 16.104 27.4768 16.0527 27.7008 15.95C27.9248 15.8473 28.1068 15.7353 28.2468 15.614C28.3868 15.4833 28.4801 15.3853 28.5268 15.32C28.6108 15.1987 28.6761 15.1287 28.7228 15.11C28.7694 15.082 28.8441 15.068 28.9468 15.068H29.6188C29.7121 15.068 29.7868 15.096 29.8428 15.152C29.9081 15.1987 29.9361 15.2687 29.9268 15.362C29.9174 15.502 29.8428 15.6747 29.7028 15.88C29.5628 16.076 29.3621 16.272 29.1008 16.468C28.8394 16.664 28.5221 16.8273 28.1488 16.958C27.7754 17.0793 27.3461 17.14 26.8608 17.14ZM24.9568 12.828H28.7928V12.786C28.7928 12.366 28.7134 11.9927 28.5548 11.666C28.4054 11.3393 28.1861 11.0827 27.8968 10.896C27.6074 10.7 27.2621 10.602 26.8608 10.602C26.4594 10.602 26.1141 10.7 25.8248 10.896C25.5448 11.0827 25.3301 11.3393 25.1808 11.666C25.0314 11.9927 24.9568 12.366 24.9568 12.786V12.828ZM33.5373 17C33.416 17 33.3227 16.972 33.2573 16.916C33.192 16.8507 33.136 16.762 33.0893 16.65L31.1013 10.154C31.0827 10.1073 31.0733 10.0607 31.0733 10.014C31.0733 9.93 31.1013 9.86 31.1573 9.804C31.2227 9.748 31.2927 9.72 31.3673 9.72H31.9833C32.086 9.72 32.1653 9.748 32.2213 9.804C32.2773 9.86 32.3147 9.91133 32.3333 9.958L33.8873 15.236L35.5533 10.014C35.572 9.94867 35.6093 9.88333 35.6653 9.818C35.7307 9.75267 35.824 9.72 35.9453 9.72H36.4213C36.5427 9.72 36.636 9.75267 36.7013 9.818C36.7667 9.88333 36.804 9.94867 36.8133 10.014L38.4793 15.236L40.0333 9.958C40.0427 9.91133 40.0753 9.86 40.1313 9.804C40.1873 9.748 40.2667 9.72 40.3693 9.72H40.9853C41.0693 9.72 41.1393 9.748 41.1953 9.804C41.2513 9.86 41.2793 9.93 41.2793 10.014C41.2793 10.0607 41.27 10.1073 41.2513 10.154L39.2633 16.65C39.2353 16.762 39.184 16.8507 39.1093 16.916C39.044 16.972 38.946 17 38.8153 17H38.2693C38.148 17 38.0453 16.972 37.9613 16.916C37.8867 16.8507 37.8353 16.762 37.8073 16.65L36.1833 11.638L34.5593 16.65C34.522 16.762 34.466 16.8507 34.3913 16.916C34.3167 16.972 34.214 17 34.0833 17H33.5373Z" fill="white"/>
<path d="M61.5 14.5L54.75 19.6962L54.75 9.30385L61.5 14.5Z" fill="#62D0B6"/>
</svg>
